
<svg version="1.1" id="Layer_1" xmlns="http://www.w3.org/2000/svg" xmlns:xlink="http://www.w3.org/1999/xlink" x="0px" y="0px"
	 width="100%" viewBox="0 0 500 500" enable-background="new 0 0 500 500" xml:space="preserve">
<path fill="#FFFDFB" opacity="1.000000" stroke="none" 
	d="
M501.000000,220.000000 
	C501.000000,240.354233 501.000000,260.708466 500.632294,281.228699 
	C499.845184,282.234192 499.227814,283.030945 499.036041,283.919556 
	C496.049194,297.759644 493.654938,311.753693 490.040802,325.425873 
	C485.220154,343.662109 476.906555,360.522949 467.604187,376.891815 
	C458.186401,393.463898 447.065643,408.844360 433.801666,422.465576 
	C424.999847,431.504456 415.350769,439.787659 405.583221,447.802521 
	C384.363556,465.214569 360.437378,477.905365 334.603760,487.073669 
	C317.841492,493.022552 300.801422,497.729126 282.965302,499.084259 
	C282.265747,499.137421 281.653137,500.335449 281.000000,501.000000 
	C261.312439,501.000000 241.624878,501.000000 221.771835,500.627960 
	C220.764297,499.839417 219.940292,499.102783 219.077499,499.054138 
	C204.444260,498.229401 190.454117,494.365753 176.533630,490.165039 
	C159.102615,484.904938 142.693298,477.369080 126.827759,468.454926 
	C109.341377,458.630035 93.201408,446.954651 78.828094,433.083313 
	C69.513435,424.093933 60.920609,414.250305 52.807026,404.144958 
	C36.155884,383.406281 23.946095,360.089752 15.005508,335.081024 
	C9.080635,318.507874 4.636062,301.557648 2.917739,283.967102 
	C2.848252,283.255737 1.664564,282.653229 1.000000,282.000000 
	C1.000000,261.645782 1.000000,241.291550 1.367684,220.771332 
	C2.154759,219.765900 2.772140,218.969177 2.963914,218.080627 
	C5.951078,204.240051 8.389961,190.259369 11.949345,176.569427 
	C16.699928,158.297958 25.182390,141.522339 34.380692,125.101402 
	C43.707645,108.450790 55.054264,93.207443 68.246742,79.583252 
	C78.247726,69.254982 89.444382,59.996159 100.677170,50.968418 
	C120.533783,35.009743 142.976654,23.526840 166.920242,15.016691 
	C183.811218,9.013217 201.022552,4.218318 219.035019,2.915423 
	C219.732544,2.864968 220.346893,1.664570 221.000000,1.000005 
	C240.687561,1.000000 260.375122,1.000000 280.228210,1.372054 
	C281.069427,2.155590 281.704285,2.823275 282.427277,2.938646 
	C289.147308,4.011037 295.917877,4.796026 302.607117,6.026796 
	C330.742615,11.203506 356.851532,21.969305 381.056183,36.827553 
	C402.499237,49.990547 422.067383,65.698509 438.630402,84.980576 
	C450.491180,98.788460 461.273590,113.268265 470.000702,129.226700 
	C485.195526,157.012161 495.543915,186.406677 499.079803,218.032166 
	C499.160126,218.750687 500.335419,219.346786 501.000000,220.000000 
M197.039764,156.471359 
	C218.343552,188.436859 239.647354,220.402374 261.110199,252.606552 
	C256.751190,255.528244 252.548615,258.345062 248.121613,261.312347 
	C221.394852,221.196960 194.963989,181.525711 168.531143,141.851471 
	C118.808540,176.049164 91.906395,256.796844 135.416031,325.207123 
	C175.886536,388.839020 261.639221,408.562561 327.146698,365.317108 
	C392.692017,322.046722 408.228668,231.987274 361.100708,168.916779 
	C313.639435,105.400223 230.804688,101.528831 181.499634,133.102188 
	C186.549316,140.690536 191.598465,148.278076 197.039764,156.471359 
M444.236053,113.260162 
	C363.025848,0.535633 216.922119,-10.747830 125.870407,49.689899 
	C132.753754,59.982101 139.635056,70.271240 146.495163,80.528709 
	C248.445435,19.340263 370.337891,59.734241 423.110718,148.759247 
	C475.246277,236.709305 452.448730,351.332855 370.353851,411.972168 
	C287.620331,473.083099 171.942749,461.747314 103.058876,385.360718 
	C68.896339,347.477234 51.177116,302.674103 51.474915,251.575150 
	C51.867626,184.188980 80.254494,130.396790 133.494034,89.222229 
	C126.458817,78.673798 119.585342,68.367874 112.705460,58.052341 
	C10.895580,130.227554 -18.892916,273.270325 53.010818,382.151764 
	C125.407310,491.779419 275.964844,521.477051 383.816986,447.560883 
	C494.410919,371.765594 521.518066,223.129364 444.236053,113.260162 
M162.968475,85.396912 
	C159.870346,87.200928 156.772217,89.004951 153.399399,90.968918 
	C160.557388,101.699020 167.361374,111.898430 174.149429,122.073982 
	C251.470642,77.658257 342.221313,108.029381 381.299713,176.915436 
	C417.953796,241.527969 403.489105,328.288727 335.063049,375.009430 
	C272.775146,417.539032 186.552185,407.471558 135.426453,346.528687 
	C86.152321,287.793030 86.180000,188.752335 161.033768,130.569672 
	C154.187347,120.316826 147.330383,110.048187 140.575134,99.931877 
	C139.793365,100.186897 139.616348,100.205185 139.487350,100.293564 
	C138.938248,100.669746 138.382050,101.040428 137.866379,101.459793 
	C77.027611,150.936401 52.426746,214.541779 68.317322,291.275696 
	C89.806374,395.044037 195.142700,460.126770 299.627228,431.913239 
	C376.415192,411.178497 431.117401,346.000397 437.664368,267.589752 
	C441.544678,221.116852 430.295441,178.271408 402.303894,140.564575 
	C368.353546,94.830704 322.736359,69.134117 265.975494,64.278290 
	C230.009048,61.201401 195.707352,68.085785 162.968475,85.396912 
z"/>
<path fill="#000000" opacity="1.000000" stroke="none" 
	d="
M501.000000,219.531342 
	C500.335419,219.346786 499.160126,218.750687 499.079803,218.032166 
	C495.543915,186.406677 485.195526,157.012161 470.000702,129.226700 
	C461.273590,113.268265 450.491180,98.788460 438.630402,84.980576 
	C422.067383,65.698509 402.499237,49.990547 381.056183,36.827553 
	C356.851532,21.969305 330.742615,11.203506 302.607117,6.026796 
	C295.917877,4.796026 289.147308,4.011037 282.427277,2.938646 
	C281.704285,2.823275 281.069427,2.155590 280.696838,1.372054 
	C354.260193,1.000000 427.520386,1.000000 501.000000,1.000000 
	C501.000000,73.687416 501.000000,146.375046 501.000000,219.531342 
z"/>
<path fill="#000000" opacity="1.000000" stroke="none" 
	d="
M220.531342,1.000005 
	C220.346893,1.664570 219.732544,2.864968 219.035019,2.915423 
	C201.022552,4.218318 183.811218,9.013217 166.920242,15.016691 
	C142.976654,23.526840 120.533783,35.009743 100.677170,50.968418 
	C89.444382,59.996159 78.247726,69.254982 68.246742,79.583252 
	C55.054264,93.207443 43.707645,108.450790 34.380692,125.101402 
	C25.182390,141.522339 16.699928,158.297958 11.949345,176.569427 
	C8.389961,190.259369 5.951078,204.240051 2.963914,218.080627 
	C2.772140,218.969177 2.154759,219.765900 1.367684,220.302673 
	C1.000000,147.072800 1.000000,74.145592 1.000000,1.000000 
	C74.020752,1.000000 147.041718,1.000000 220.531342,1.000005 
z"/>
<path fill="#000000" opacity="1.000000" stroke="none" 
	d="
M281.468658,501.000000 
	C281.653137,500.335449 282.265747,499.137421 282.965302,499.084259 
	C300.801422,497.729126 317.841492,493.022552 334.603760,487.073669 
	C360.437378,477.905365 384.363556,465.214569 405.583221,447.802521 
	C415.350769,439.787659 424.999847,431.504456 433.801666,422.465576 
	C447.065643,408.844360 458.186401,393.463898 467.604187,376.891815 
	C476.906555,360.522949 485.220154,343.662109 490.040802,325.425873 
	C493.654938,311.753693 496.049194,297.759644 499.036041,283.919556 
	C499.227814,283.030945 499.845184,282.234192 500.632294,281.697327 
	C501.000000,354.927185 501.000000,427.854401 501.000000,501.000000 
	C427.979248,501.000000 354.958282,501.000000 281.468658,501.000000 
z"/>
<path fill="#000000" opacity="1.000000" stroke="none" 
	d="
M1.000000,282.468658 
	C1.664564,282.653229 2.848252,283.255737 2.917739,283.967102 
	C4.636062,301.557648 9.080635,318.507874 15.005508,335.081024 
	C23.946095,360.089752 36.155884,383.406281 52.807026,404.144958 
	C60.920609,414.250305 69.513435,424.093933 78.828094,433.083313 
	C93.201408,446.954651 109.341377,458.630035 126.827759,468.454926 
	C142.693298,477.369080 159.102615,484.904938 176.533630,490.165039 
	C190.454117,494.365753 204.444260,498.229401 219.077499,499.054138 
	C219.940292,499.102783 220.764297,499.839417 221.303177,500.627960 
	C147.739807,501.000000 74.479607,501.000000 1.000000,501.000000 
	C1.000000,428.312592 1.000000,355.624939 1.000000,282.468658 
z"/>
<path fill="#FF6601" opacity="1.000000" stroke="none" 
	d="
M196.843689,156.168488 
	C191.598465,148.278076 186.549316,140.690536 181.499634,133.102188 
	C230.804688,101.528831 313.639435,105.400223 361.100708,168.916779 
	C408.228668,231.987274 392.692017,322.046722 327.146698,365.317108 
	C261.639221,408.562561 175.886536,388.839020 135.416031,325.207123 
	C91.906395,256.796844 118.808540,176.049164 168.531143,141.851471 
	C194.963989,181.525711 221.394852,221.196960 248.121613,261.312347 
	C252.548615,258.345062 256.751190,255.528244 261.110199,252.606552 
	C239.647354,220.402374 218.343552,188.436859 196.843689,156.168488 
z"/>
<path fill="#FF6702" opacity="1.000000" stroke="none" 
	d="
M444.458618,113.542755 
	C521.518066,223.129364 494.410919,371.765594 383.816986,447.560883 
	C275.964844,521.477051 125.407310,491.779419 53.010818,382.151764 
	C-18.892916,273.270325 10.895580,130.227554 112.705460,58.052341 
	C119.585342,68.367874 126.458817,78.673798 133.494034,89.222229 
	C80.254494,130.396790 51.867626,184.188980 51.474915,251.575150 
	C51.177116,302.674103 68.896339,347.477234 103.058876,385.360718 
	C171.942749,461.747314 287.620331,473.083099 370.353851,411.972168 
	C452.448730,351.332855 475.246277,236.709305 423.110718,148.759247 
	C370.337891,59.734241 248.445435,19.340263 146.495163,80.528709 
	C139.635056,70.271240 132.753754,59.982101 125.870407,49.689899 
	C216.922119,-10.747830 363.025848,0.535633 444.458618,113.542755 
M97.495277,92.047615 
	C92.793037,87.712776 87.419220,87.091927 81.910126,89.930595 
	C77.017975,92.451370 75.099525,96.923676 75.556389,102.376122 
	C76.021065,107.921761 79.019287,111.543060 84.191223,113.374138 
	C89.306076,115.185013 94.996803,113.439362 98.452301,109.108246 
	C102.124603,104.505394 101.959694,98.516579 97.495277,92.047615 
M364.558167,437.452240 
	C365.016296,438.333832 365.372864,439.288940 365.949158,440.084991 
	C369.580383,445.101013 376.334686,446.918640 381.954315,444.446655 
	C387.635193,441.947723 390.497559,435.606842 388.938873,428.973877 
	C387.677399,423.605560 382.393616,419.882019 376.154266,419.964508 
	C367.561981,420.078125 363.179688,426.220978 364.558167,437.452240 
z"/>
<path fill="#FF6702" opacity="1.000000" stroke="none" 
	d="
M163.303925,85.236588 
	C195.707352,68.085785 230.009048,61.201401 265.975494,64.278290 
	C322.736359,69.134117 368.353546,94.830704 402.303894,140.564575 
	C430.295441,178.271408 441.544678,221.116852 437.664368,267.589752 
	C431.117401,346.000397 376.415192,411.178497 299.627228,431.913239 
	C195.142700,460.126770 89.806374,395.044037 68.317322,291.275696 
	C52.426746,214.541779 77.027611,150.936401 137.866379,101.459793 
	C138.382050,101.040428 138.938248,100.669746 139.487350,100.293564 
	C139.616348,100.205185 139.793365,100.186897 140.575134,99.931877 
	C147.330383,110.048187 154.187347,120.316826 161.033768,130.569672 
	C86.180000,188.752335 86.152321,287.793030 135.426453,346.528687 
	C186.552185,407.471558 272.775146,417.539032 335.063049,375.009430 
	C403.489105,328.288727 417.953796,241.527969 381.299713,176.915436 
	C342.221313,108.029381 251.470642,77.658257 174.149429,122.073982 
	C167.361374,111.898430 160.557388,101.699020 153.399399,90.968918 
	C156.772217,89.004951 159.870346,87.200928 163.303925,85.236588 
M358.617462,124.264771 
	C363.960144,119.271187 365.179718,112.917747 361.873718,107.301254 
	C358.838745,102.145172 352.445618,99.787758 346.788544,101.738747 
	C339.480499,104.259117 335.930389,112.018890 338.884338,119.015602 
	C342.040863,126.492126 349.864807,128.833878 358.617462,124.264771 
M104.855080,304.866760 
	C104.292152,304.255219 103.785866,303.577026 103.157234,303.042786 
	C98.612724,299.180603 92.190727,298.658722 87.425591,301.728790 
	C82.353668,304.996490 80.300095,311.103607 82.249207,317.122772 
	C83.921104,322.285858 88.826859,325.330994 95.202477,325.163239 
	C105.139870,324.901825 110.032562,315.360687 104.855080,304.866760 
z"/>
<path fill="#FFFCFA" opacity="1.000000" stroke="none" 
	d="
M97.746666,92.330139 
	C101.959694,98.516579 102.124603,104.505394 98.452301,109.108246 
	C94.996803,113.439362 89.306076,115.185013 84.191223,113.374138 
	C79.019287,111.543060 76.021065,107.921761 75.556389,102.376122 
	C75.099525,96.923676 77.017975,92.451370 81.910126,89.930595 
	C87.419220,87.091927 92.793037,87.712776 97.746666,92.330139 
z"/>
<path fill="#FFFDFB" opacity="1.000000" stroke="none" 
	d="
M364.384705,437.078857 
	C363.179688,426.220978 367.561981,420.078125 376.154266,419.964508 
	C382.393616,419.882019 387.677399,423.605560 388.938873,428.973877 
	C390.497559,435.606842 387.635193,441.947723 381.954315,444.446655 
	C376.334686,446.918640 369.580383,445.101013 365.949158,440.084991 
	C365.372864,439.288940 365.016296,438.333832 364.384705,437.078857 
z"/>
<path fill="#FFFCFA" opacity="1.000000" stroke="none" 
	d="
M358.324249,124.505562 
	C349.864807,128.833878 342.040863,126.492126 338.884338,119.015602 
	C335.930389,112.018890 339.480499,104.259117 346.788544,101.738747 
	C352.445618,99.787758 358.838745,102.145172 361.873718,107.301254 
	C365.179718,112.917747 363.960144,119.271187 358.324249,124.505562 
z"/>
<path fill="#FFFCFA" opacity="1.000000" stroke="none" 
	d="
M105.063240,305.197388 
	C110.032562,315.360687 105.139870,324.901825 95.202477,325.163239 
	C88.826859,325.330994 83.921104,322.285858 82.249207,317.122772 
	C80.300095,311.103607 82.353668,304.996490 87.425591,301.728790 
	C92.190727,298.658722 98.612724,299.180603 103.157234,303.042786 
	C103.785866,303.577026 104.292152,304.255219 105.063240,305.197388 
z"/>
</svg>